<svg xmlns="http://www.w3.org/2000/svg" width="43.2" height="48" viewBox="0 0 43.2 48"><defs><style>.a{fill:#ffb5b5;}</style></defs><g transform="translate(-3 -2)"><path class="a" d="M24.6,2A21.63,21.63,0,0,0,3,23.6V38a4.8,4.8,0,0,0,4.8,4.8H15V26H7.8V23.6a16.8,16.8,0,1,1,33.6,0V26H34.2V42.8h2.4a2.4,2.4,0,0,1-2.4,2.4H29.175A3.582,3.582,0,0,0,25.8,42.8H23.4a3.6,3.6,0,1,0,0,7.2H34.2a7.214,7.214,0,0,0,7.2-7.2A4.8,4.8,0,0,0,46.2,38V23.6A21.63,21.63,0,0,0,24.6,2Z" transform="translate(0 0)"/></g></svg>