<svg xmlns="http://www.w3.org/2000/svg" width="23.584" height="24.737" viewBox="0 0 23.584 24.737"><defs><style>.a{fill:none;stroke-linecap:round;}.b,.c{stroke:none;}.c{fill:#515c6f;}</style></defs><g transform="translate(-386.802 -74.9)"><g transform="translate(110 -53)"><g transform="translate(279 130)"><g class="a" transform="translate(-48 -48)"><path class="b" d="M57.638,66.618a9.935,9.935,0,0,1-3.771-.737.567.567,0,0,0-.079-.032s-.009,0-.009,0a1.494,1.494,0,0,0-.52-.093,1.41,1.41,0,0,0-.561.111L48.8,67.3l1.025-4.1a1.392,1.392,0,0,0-.181-.677h0a1.583,1.583,0,0,0-.116-.172A9.017,9.017,0,0,1,48,57.318a9.649,9.649,0,1,1,9.638,9.3Z"/><path class="c" d="M 48.80242538452148 67.29545593261719 L 52.69863510131836 65.86222076416016 C 52.87026596069336 65.78799438476563 53.0604248046875 65.75088500976563 53.2598762512207 65.75088500976563 C 53.4407844543457 65.75088500976563 53.61702728271484 65.78335571289063 53.77937698364258 65.84365844726563 C 53.77937698364258 65.84829711914063 53.78400421142578 65.84829711914063 53.78864669799805 65.84829711914063 C 53.81647491455078 65.85757446289063 53.83966445922852 65.86685943603516 53.86749649047852 65.88076782226563 C 55.02244567871094 66.35386657714844 56.2979850769043 66.61825561523438 57.63846588134766 66.61825561523438 C 62.9678955078125 66.61825561523438 67.28619384765625 62.45303726196289 67.28619384765625 57.30911636352539 C 67.28619384765625 52.16985702514648 62.9678955078125 47.99999618530273 57.63846588134766 47.99999618530273 C 52.30902481079102 47.99999618530273 47.9907341003418 52.16985702514648 48.00001525878906 57.31839752197266 C 48.00001525878906 59.16908645629883 48.56125640869141 60.89455795288086 49.53066635131836 62.34636688232422 C 49.57240676879883 62.39737701416016 49.60951614379883 62.45767974853516 49.64662551879883 62.51797866821289 C 49.7579345703125 62.7174186706543 49.8275260925293 62.94933700561523 49.8275260925293 63.1951789855957 L 48.80242538452148 67.29545593261719 M 45.80248641967773 70.63658142089844 L 46.7651252746582 66.78611755371094 L 47.63922882080078 63.28980255126953 C 46.50057220458984 61.49520111083984 45.90001678466797 59.43637847900391 45.90001678466797 57.31839752197266 C 45.89463424682617 54.33393859863281 47.06979751586914 51.50797653198242 49.20901489257813 49.36489868164063 C 50.29294586181641 48.27900695800781 51.56509399414063 47.42570877075195 52.99012756347656 46.82869720458984 C 54.46102523803711 46.21245956420898 56.02495574951172 45.89999771118164 57.63846588134766 45.89999771118164 C 60.76256561279297 45.89999771118164 63.70338439941406 47.0777473449707 65.91920471191406 49.2162971496582 C 68.15492248535156 51.37404632568359 69.38619232177734 54.24813842773438 69.38619232177734 57.30911636352539 C 69.38619232177734 60.37197875976563 68.15483856201172 63.24676895141602 65.9189453125 65.40394592285156 C 63.70369720458984 67.54120635986328 60.76296615600586 68.71826171875 57.63846588134766 68.71826171875 C 56.12210464477539 68.71826171875 54.64731216430664 68.44178771972656 53.25190734863281 67.89627075195313 L 49.52742767333984 69.26633453369141 L 45.80248641967773 70.63658142089844 Z"/></g></g></g></g></svg>