<svg xmlns="http://www.w3.org/2000/svg" width="48" height="38.4" viewBox="0 0 48 38.4"><defs><style>.a{fill:#ffb5b5;}</style></defs><g transform="translate(-2 -4)"><path class="a" d="M23.6,4,18.8,8.8H14V6.4H6.8V8.8A4.809,4.809,0,0,0,2,13.6v24a4.809,4.809,0,0,0,4.8,4.8H45.2A4.809,4.809,0,0,0,50,37.6v-24a4.809,4.809,0,0,0-4.8-4.8H42.8L38,4ZM10.4,10A2.4,2.4,0,1,1,8,12.4,2.4,2.4,0,0,1,10.4,10Zm20.4,3.6a12,12,0,1,1-12,12A12,12,0,0,1,30.8,13.6Zm0,4.8A7.2,7.2,0,1,0,38,25.6,7.2,7.2,0,0,0,30.8,18.4Z" transform="translate(0 0)"/></g></svg>