<svg xmlns="http://www.w3.org/2000/svg" width="26.8" height="26.8" viewBox="0 0 26.8 26.8"><defs><style>.a{fill:none;stroke:#0090ff;stroke-width:1.8px;}</style></defs><g transform="translate(-297.1 -76.1)"><path class="a" d="M23.232,17.971a16.067,16.067,0,0,0-3.919-2.355,21.315,21.315,0,0,1-3.01-1.681,10.57,10.57,0,0,0,2.62-6.355,9.988,9.988,0,0,0-.765-4.586C17.468,1.628,15.927,0,12.5,0S7.532,1.628,6.843,2.995a9.977,9.977,0,0,0-.766,4.586A10.562,10.562,0,0,0,8.7,13.935a21.211,21.211,0,0,1-3.011,1.681,16.079,16.079,0,0,0-3.919,2.355A7.685,7.685,0,0,0,0,22.885,2.083,2.083,0,0,0,2.082,25H22.916A2.083,2.083,0,0,0,25,22.884,7.687,7.687,0,0,0,23.232,17.971Z" transform="translate(298 77)"/></g></svg>