<svg xmlns="http://www.w3.org/2000/svg" width="48" height="38.4" viewBox="0 0 48 38.4"><defs><style>.a{fill:#ffb5b5;}</style></defs><g transform="translate(-2 -4)"><path class="a" d="M20,4a5,5,0,0,0-3.825,1.95L12.35,11.2h6l1.875-2.4H28.4v2.4h4.8V8.8A4.809,4.809,0,0,0,28.4,4ZM38,4v7.2h8.4A3.688,3.688,0,0,0,50,7.6,3.688,3.688,0,0,0,46.4,4ZM6.8,13.6A4.809,4.809,0,0,0,2,18.4V37.6a4.809,4.809,0,0,0,4.8,4.8H33.2A4.809,4.809,0,0,0,38,37.6V18.4a4.809,4.809,0,0,0-4.8-4.8ZM50,16l-9.6,4.8V35.2L50,40ZM8,18.4H20a1.132,1.132,0,0,1,1.2,1.2v7.2A1.132,1.132,0,0,1,20,28H8a1.132,1.132,0,0,1-1.2-1.2V19.6A1.132,1.132,0,0,1,8,18.4Z" transform="translate(0 0)"/></g></svg>