<svg xmlns="http://www.w3.org/2000/svg" width="25.821" height="25.24" viewBox="0 0 25.821 25.24"><defs><style>.a{fill:#515c6f;stroke:#515c6f;stroke-width:0.2px;}.b{fill:none;}</style></defs><g transform="translate(-253.842 -74.86)"><path class="a" d="M98.706,87.738,86.828,77.327a.873.873,0,0,0-1.151,0L73.8,87.738a.873.873,0,0,0,1.151,1.314l.92-.806v12.991a.873.873,0,0,0,.873.873h19.02a.873.873,0,0,0,.873-.873V88.246l.92.806a.873.873,0,0,0,1.151-1.314ZM84.235,100.363v-7.2h4.034v7.2H84.235ZM94.888,86.722v13.642H90.016V92.295a.873.873,0,0,0-.873-.873H83.361a.873.873,0,0,0-.873.873v8.069H77.615V86.722s0,0,0-.007l8.637-7.57,8.637,7.57S94.888,86.719,94.888,86.722Z" transform="translate(180.5 -2.11)"/><path class="b" d="M-1424.562-433.562a1.562,1.562,0,0,1,1.563-1.562,1.561,1.561,0,0,1,1.367.806v-.024h2.383a.783.783,0,0,0,.781-.781v-8.164a.78.78,0,0,1,.781-.781h1.562a3.128,3.128,0,0,1,3.125,3.125v2.656a3.128,3.128,0,0,1-3.125,3.125h-.781v.04a2.346,2.346,0,0,1-2.344,2.344h-2.383v-.025A1.562,1.562,0,0,1-1423-432,1.562,1.562,0,0,1-1424.562-433.562Zm7.656-4.375v1.211h.781a1.565,1.565,0,0,0,1.563-1.562v-2.656a1.564,1.564,0,0,0-1.562-1.562h-.781Zm-12.969,2.773a3.128,3.128,0,0,1-3.125-3.125v-2.656a3.127,3.127,0,0,1,1.563-2.705,8.377,8.377,0,0,1,2.47-5.878A8.382,8.382,0,0,1-1423-452a8.382,8.382,0,0,1,4.873,1.549,8.421,8.421,0,0,1,3.042,3.961.782.782,0,0,1-.462,1,.782.782,0,0,1-1-.462,6.9,6.9,0,0,0-6.45-4.49,6.884,6.884,0,0,0-6.856,6.367h1.543a.78.78,0,0,1,.781.781v7.343a.78.78,0,0,1-.781.781Zm-1.562-5.781v2.656a1.564,1.564,0,0,0,1.562,1.562h.781v-5.781h-.781A1.564,1.564,0,0,0-1431.437-440.945Z" transform="translate(1688 527)"/></g></svg>