<svg xmlns="http://www.w3.org/2000/svg" width="24" height="24" viewBox="0 0 24 24"><defs><style>.a{fill:#fff;}.b{fill:none;}</style></defs><g transform="translate(-268 -605)"><g transform="translate(-8.28 -0.72)"><path class="a" d="M3.12,142.974l-.49,1.83-1.791.038a7.052,7.052,0,0,1-.052-6.574h0l1.595.292.7,1.585a4.2,4.2,0,0,0,.039,2.829Z" transform="translate(281.28 476.214)"/><path class="a" d="M268.39,208.176a7.037,7.037,0,0,1-2.51,6.805h0l-2.009-.1-.284-1.775a4.2,4.2,0,0,0,1.805-2.143h-3.764v-2.785h6.762Z" transform="translate(26.767 408.189)"/><path class="a" d="M41.117,313.43h0a7.042,7.042,0,0,1-10.608-2.154l2.281-1.868a4.187,4.187,0,0,0,6.033,2.144Z" transform="translate(251.61 309.74)"/><path class="a" d="M39.37,1.621,37.09,3.488A4.186,4.186,0,0,0,30.918,5.68L28.624,3.8h0A7.041,7.041,0,0,1,39.37,1.621Z" transform="translate(253.443 610.72)"/></g><path class="b" d="M0,0H14V14H0Z" transform="translate(273 610)"/><path class="b" d="M0,0H24V24H0Z" transform="translate(268 605)"/></g></svg>