<svg xmlns="http://www.w3.org/2000/svg" width="24" height="24" viewBox="0 0 24 24"><defs><style>.a{fill:#fff;}.b{fill:none;}</style></defs><g transform="translate(-326 -605)"><g transform="translate(331 611)"><path class="a" d="M319,247.848a4.8,4.8,0,0,1-1.6.489,3.28,3.28,0,0,0,1.2-1.69,4.471,4.471,0,0,1-1.8.687v0a2.788,2.788,0,0,0-2.089-.962,3.006,3.006,0,0,0-2.888,3.111,3.312,3.312,0,0,0,.074.693h0a8.123,8.123,0,0,1-6.118-3.227,3.258,3.258,0,0,0,.876,4.11,1.759,1.759,0,0,1-1.261-.351,2.973,2.973,0,0,0,2.227,3.039,2.108,2.108,0,0,1-1.2.1A2.78,2.78,0,0,0,309,255.959a4.527,4.527,0,0,1-4,1.291,8.212,8.212,0,0,0,4.518,1.376c4.659,0,8.279-4.066,8.084-9.083,0-.006,0-.011,0-.017s0-.027,0-.039,0-.031,0-.047A5.207,5.207,0,0,0,319,247.848Z" transform="translate(-305 -246.375)"/></g><path class="b" d="M0,0H24V24H0Z" transform="translate(326 605)"/></g></svg>